<svg width="34" height="29" viewBox="0 0 34 29" fill="none" xmlns="http://www.w3.org/2000/svg">
<mask id="path-1-inside-1_126_12324" fill="white">
<path fill-rule="evenodd" clip-rule="evenodd" d="M3.01258 14.8116L4.77383 16.5729L16.799 28.5981L28.8241 16.5729L30.5854 14.8116C33.9061 11.491 33.9061 6.10715 30.5854 2.78649C27.2647 -0.53416 21.8809 -0.53416 18.5602 2.78649L16.799 4.54776L15.0377 2.7865C11.7171 -0.534157 6.33323 -0.534158 3.01258 2.7865C-0.308078 6.10715 -0.308077 11.491 3.01258 14.8116Z"/>
</mask>
<path d="M4.77383 16.5729L6.18805 15.1587L4.77383 16.5729ZM3.01258 14.8116L1.59836 16.2259L3.01258 14.8116ZM16.799 28.5981L15.3848 30.0123L16.799 31.4265L18.2132 30.0123L16.799 28.5981ZM28.8241 16.5729L30.2384 17.9871L30.2384 17.9871L28.8241 16.5729ZM30.5854 14.8116L29.1712 13.3974L29.1712 13.3974L30.5854 14.8116ZM18.5602 2.78649L19.9745 4.20071L18.5602 2.78649ZM16.799 4.54776L15.3848 5.96197L16.799 7.37618L18.2132 5.96197L16.799 4.54776ZM15.0377 2.7865L16.4519 1.37228L15.0377 2.7865ZM6.18805 15.1587L4.42679 13.3974L1.59836 16.2259L3.35962 17.9871L6.18805 15.1587ZM18.2132 27.1838L6.18805 15.1587L3.35962 17.9871L15.3848 30.0123L18.2132 27.1838ZM27.4099 15.1587L15.3848 27.1838L18.2132 30.0123L30.2384 17.9871L27.4099 15.1587ZM29.1712 13.3974L27.4099 15.1587L30.2384 17.9871L31.9996 16.2259L29.1712 13.3974ZM29.1712 4.20071C31.7108 6.74031 31.7108 10.8578 29.1712 13.3974L31.9996 16.2259C36.1013 12.1242 36.1013 5.47398 31.9996 1.37228L29.1712 4.20071ZM19.9745 4.20071C22.5141 1.6611 26.6316 1.6611 29.1712 4.20071L31.9996 1.37228C27.8979 -2.72942 21.2477 -2.72942 17.146 1.37228L19.9745 4.20071ZM18.2132 5.96197L19.9745 4.20071L17.146 1.37228L15.3848 3.13354L18.2132 5.96197ZM13.6235 4.20071L15.3848 5.96197L18.2132 3.13354L16.4519 1.37228L13.6235 4.20071ZM4.42679 4.20071C6.96639 1.6611 11.0839 1.6611 13.6235 4.20071L16.4519 1.37228C12.3502 -2.72942 5.70006 -2.72942 1.59836 1.37228L4.42679 4.20071ZM4.42679 13.3974C1.88718 10.8578 1.88718 6.74032 4.42679 4.20071L1.59836 1.37228C-2.50334 5.47399 -2.50334 12.1242 1.59836 16.2259L4.42679 13.3974Z" fill="white" mask="url(#path-1-inside-1_126_12324)"/>
</svg>
