<svg width="34" height="29" viewBox="0 0 34 29" fill="none" xmlns="http://www.w3.org/2000/svg">
<mask id="path-1-inside-1_116_184" fill="white">
<path fill-rule="evenodd" clip-rule="evenodd" d="M3.0126 14.8116L4.77386 16.5728L16.799 28.598L28.8242 16.5728L30.5854 14.8115C33.9061 11.4909 33.9061 6.10705 30.5854 2.7864C27.2648 -0.534259 21.8809 -0.534259 18.5603 2.7864L16.799 4.54766L15.0377 2.7864C11.7171 -0.534256 6.33325 -0.534256 3.0126 2.7864C-0.308056 6.10705 -0.308055 11.4909 3.0126 14.8116Z"/>
</mask>
<path d="M16.799 28.598L15.3848 30.0122L16.799 31.4264L18.2132 30.0122L16.799 28.598ZM28.8241 16.5728L30.2384 17.987L30.2384 17.987L28.8241 16.5728ZM30.5854 14.8116L29.1712 13.3973L29.1712 13.3973L30.5854 14.8116ZM16.799 4.54766L15.3848 5.96188L16.799 7.37609L18.2132 5.96188L16.799 4.54766ZM6.18805 15.1586L4.42679 13.3973L1.59836 16.2258L3.35962 17.987L6.18805 15.1586ZM18.2132 27.1838L6.18805 15.1586L3.35962 17.987L15.3848 30.0122L18.2132 27.1838ZM27.4099 15.1586L15.3848 27.1838L18.2132 30.0122L30.2384 17.987L27.4099 15.1586ZM29.1712 13.3973L27.4099 15.1586L30.2384 17.987L31.9996 16.2258L29.1712 13.3973ZM29.1712 4.20062C31.7108 6.74022 31.7108 10.8577 29.1712 13.3973L31.9996 16.2258C36.1013 12.1241 36.1013 5.47389 31.9996 1.37219L29.1712 4.20062ZM19.9745 4.20062C22.5141 1.66101 26.6316 1.66101 29.1712 4.20062L31.9996 1.37219C27.8979 -2.72951 21.2477 -2.72951 17.146 1.37219L19.9745 4.20062ZM18.2132 5.96188L19.9745 4.20062L17.146 1.37219L15.3848 3.13345L18.2132 5.96188ZM13.6235 4.20062L15.3848 5.96188L18.2132 3.13345L16.4519 1.37219L13.6235 4.20062ZM4.42679 4.20062C6.96639 1.66101 11.0839 1.66101 13.6235 4.20062L16.4519 1.37219C12.3502 -2.72951 5.70006 -2.72951 1.59836 1.37219L4.42679 4.20062ZM4.42679 13.3973C1.88718 10.8577 1.88718 6.74022 4.42679 4.20062L1.59836 1.37219C-2.50334 5.47389 -2.50334 12.1241 1.59836 16.2258L4.42679 13.3973Z" fill="#C5267C" mask="url(#path-1-inside-1_116_184)"/>
</svg>
