<svg width="20" height="18" viewBox="0 0 20 18" fill="none" xmlns="http://www.w3.org/2000/svg">
<path d="M9.99992 2.7143C11.2331 1.36901 12.4594 0.666672 14.1666 0.666672C17.1129 0.666672 19.1666 2.91268 19.1666 5.86364C19.1666 9.45858 16.3896 13.1026 10.9473 16.8626C10.3771 17.2566 9.6227 17.2566 9.05254 16.8626C3.61027 13.1026 0.833252 9.45858 0.833252 5.86364C0.833252 2.91268 2.88697 0.666672 5.83325 0.666672C7.54045 0.666672 8.76676 1.36901 9.99992 2.7143ZM9.34828 4.51944C8.16656 3.03694 7.19309 2.33334 5.83325 2.33334C3.8424 2.33334 2.49992 3.80151 2.49992 5.86364C2.49992 8.77957 4.96267 12.0112 9.99992 15.4914C15.0372 12.0112 17.4999 8.77957 17.4999 5.86364C17.4999 3.80151 16.1574 2.33334 14.1666 2.33334C12.8067 2.33334 11.8333 3.03694 10.6516 4.51944C10.3179 4.93797 9.6819 4.93797 9.34828 4.51944Z" fill="#F9F9F9"/>
</svg>
